<svg width="66" height="45" viewBox="0 0 66 45" fill="none" xmlns="http://www.w3.org/2000/svg">
<path d="M56.1003 10.9309L65.5103 34.7272L51.8003 20.7376L0.390259 22.0945L56.1003 10.9309Z" fill="#002C44"/>
<path d="M65.2202 0.104004C65.2202 0.104004 54.7802 8.53518 56.2002 11.2114L0.880203 21.8229C0.890203 21.8229 27.5002 4.3617 65.2202 0.104004Z" fill="#FF7B3A"/>
<path d="M65.9301 35.1858C66.3601 35.9438 44.9601 33.1459 44.9601 33.1459L52.3001 20.457C52.3001 20.457 62.1401 28.5513 65.9301 35.1858Z" fill="#FBC949"/>
<path d="M52.3 20.4572C52.3 20.4572 42.24 35.8598 47.87 44.8056L3.05176e-05 22.0199C3.05176e-05 22.0199 47.21 19.5495 52.3 20.4572Z" fill="#F75E28"/>
</svg>
